<?xml version="1.0" encoding="utf-8"?>
<!-- Generator: Adobe Illustrator 24.0.1, SVG Export Plug-In . SVG Version: 6.00 Build 0)  -->
<svg version="1.1" id="Layer_1" xmlns="http://www.w3.org/2000/svg" xmlns:xlink="http://www.w3.org/1999/xlink" x="0px" y="0px"
	 viewBox="0 0 1920 1920" style="enable-background:new 0 0 1920 1920;" xml:space="preserve">
<style type="text/css">
	.st0{fill:#1A1A1A;}
	.st1{filter:url(#Adobe_OpacityMaskFilter);}
	.st2{opacity:9.000000e-02;mask:url(#SVGID_1_);}
	.st3{fill:#D3D3D3;}
</style>
<g>
	
		<image style="overflow:visible;opacity:0.68;" width="1038" height="1038" xlink:href="CC5C73361CE6BC0E.png"  transform="matrix(1 0 0 1 419.3226 441)">
	</image>
	<g>
		<g>
			<path class="st0" d="M1349,960c0,226.8-183.9,410.7-410.7,410.7H634.6c-59.1,0-107-47.9-107-107V656.3c0-59.1,47.9-107,107-107
				h303.7C1165.1,549.3,1349,733.2,1349,960z"/>
		</g>
		<defs>
			<filter id="Adobe_OpacityMaskFilter" filterUnits="userSpaceOnUse" x="527.6" y="549.3" width="821.4" height="821.4">
				
					<feColorMatrix  type="matrix" values="-1 0 0 0 1  0 -1 0 0 1  0 0 -1 0 1  0 0 0 1 0" color-interpolation-filters="sRGB" result="source"/>
			</filter>
		</defs>
		<mask maskUnits="userSpaceOnUse" x="527.6" y="549.3" width="821.4" height="821.4" id="SVGID_1_">
			<g class="st1">
				
					<image style="overflow:visible;" width="826" height="826" xlink:href="CC5C73361CE6BC1D.jpg"  transform="matrix(1 0 0 1 525.3226 547)">
				</image>
			</g>
		</mask>
		<g class="st2">
			<path class="st3" d="M1349,960c0,226.8-183.9,410.7-410.7,410.7H634.6c-59.1,0-107-47.9-107-107V656.3c0-59.1,47.9-107,107-107
				h303.7C1165.1,549.3,1349,733.2,1349,960z"/>
		</g>
	</g>
</g>
</svg>
