<?xml version="1.0" encoding="utf-8"?>
<!-- Generator: Adobe Illustrator 24.0.1, SVG Export Plug-In . SVG Version: 6.00 Build 0)  -->
<svg version="1.1" id="Layer_1" xmlns="http://www.w3.org/2000/svg" xmlns:xlink="http://www.w3.org/1999/xlink" x="0px" y="0px"
	 viewBox="0 0 4400 1920" style="enable-background:new 0 0 4400 1920;" xml:space="preserve">
<style type="text/css">
	.st0{fill:#AA0009;}
	.st1{fill:#4600BF;}
	.st2{fill:#FFFFFF;}
	.st3{filter:url(#Adobe_OpacityMaskFilter);}
	.st4{opacity:0.14;mask:url(#SVGID_1_);}
	.st5{font-family:'Muli-SemiBold';}
	.st6{font-size:374.3021px;}
</style>
<g>
	
		<image style="overflow:visible;opacity:0.52;" width="1349" height="1349" xlink:href="D33BD89A02998BB6.png"  transform="matrix(1 0 0 1 63.5074 319.3227)">
	</image>
	<g>
		<path class="st0" d="M1208.3,994.1c0,259.6-210.4,470-470,470H333.4c-36,0-65.2-29.2-65.2-65.2V589.3c0-36,29.2-65.2,65.2-65.2
			h404.8C997.8,524,1208.3,734.5,1208.3,994.1z"/>
	</g>
</g>
<g>
	
		<image style="overflow:visible;opacity:0.52;" width="1125" height="1125" xlink:href="D33BD89A02998BBA.png"  transform="matrix(1 0 0 1 175.5074 431.3227)">
	</image>
	<g>
		<path class="st1" d="M1096.4,994.1c0,197.8-160.4,358.2-358.2,358.2H429.8c-27.5,0-49.7-22.3-49.7-49.7V685.6
			c0-27.5,22.2-49.7,49.7-49.7h308.5C936,635.9,1096.4,796.3,1096.4,994.1z"/>
	</g>
</g>
<g>
	
		<image style="overflow:visible;opacity:0.52;" width="900" height="900" xlink:href="D33BD89A02998BBD.png"  transform="matrix(1 0 0 1 288.5074 544.3227)">
	</image>
	<g>
		<g>
			<path class="st2" d="M983.7,994.1c0,135.6-109.9,245.5-245.5,245.5H526.8c-18.8,0-34.1-15.3-34.1-34.1V782.7
				c0-18.8,15.2-34.1,34.1-34.1h211.4C873.8,748.6,983.7,858.5,983.7,994.1z"/>
		</g>
		<defs>
			<filter id="Adobe_OpacityMaskFilter" filterUnits="userSpaceOnUse" x="492.8" y="748.6" width="490.9" height="490.9">
				
					<feColorMatrix  type="matrix" values="-1 0 0 0 1  0 -1 0 0 1  0 0 -1 0 1  0 0 0 1 0" color-interpolation-filters="sRGB" result="source"/>
			</filter>
		</defs>
		<mask maskUnits="userSpaceOnUse" x="492.8" y="748.6" width="490.9" height="490.9" id="SVGID_1_">
			<g class="st3">
				
					<image style="overflow:visible;" width="496" height="496" xlink:href="D33BD89A02998BBE.jpg"  transform="matrix(1 0 0 1 490.5074 746.3227)">
				</image>
			</g>
		</mask>
		<g class="st4">
			<path d="M983.7,994.1c0,135.6-109.9,245.5-245.5,245.5H526.8c-18.8,0-34.1-15.3-34.1-34.1V782.7c0-18.8,15.2-34.1,34.1-34.1
				h211.4C873.8,748.6,983.7,858.5,983.7,994.1z"/>
		</g>
	</g>
</g>
<g>
	
		<image style="overflow:visible;opacity:0.52;" width="2293" height="831" xlink:href="D33BD89A02998BBE.png"  transform="matrix(1 0 0 1 2151 606)">
	</image>
	<g>
		<text transform="matrix(1 0 0 1 2355.4604 1130.6338)" class="st5 st6">dezprof21.</text>
	</g>
</g>
<image style="overflow:visible;" width="449" height="512" xlink:href="rosp.png"  transform="matrix(2.2246 0 0 2.1305 1297.1105 491.5297)">
</image>
</svg>
