<?xml version="1.0" encoding="utf-8"?>
<!-- Generator: Adobe Illustrator 24.0.1, SVG Export Plug-In . SVG Version: 6.00 Build 0)  -->
<svg version="1.1" id="Layer_1" xmlns="http://www.w3.org/2000/svg" xmlns:xlink="http://www.w3.org/1999/xlink" x="0px" y="0px"
	 viewBox="0 0 1920 1920" style="enable-background:new 0 0 1920 1920;" xml:space="preserve">
<style type="text/css">
	.st0{fill:#AA003E;}
	.st1{opacity:9.000000e-02;}
</style>
<g>
	
		<image style="overflow:visible;opacity:0.3;" width="1459" height="1458" xlink:href="D29D04850D65E64B.png"  transform="matrix(1 0 0 1 209 231)">
	</image>
	<g>
		<g>
			<g>
				<g>
					<path class="st0" d="M1349,960c0,226.8-183.9,410.7-410.7,410.7H634.6c-59.1,0-107-47.9-107-107V656.3c0-59.1,47.9-107,107-107
						h303.7C1165.1,549.3,1349,733.2,1349,960z"/>
				</g>
				<g class="st1">
					<path class="st0" d="M1349,960c0,226.8-183.9,410.7-410.7,410.7H634.6c-59.1,0-107-47.9-107-107V656.3c0-59.1,47.9-107,107-107
						h303.7C1165.1,549.3,1349,733.2,1349,960z"/>
				</g>
			</g>
		</g>
	</g>
</g>
</svg>
