<?xml version="1.0" encoding="utf-8"?>
<!-- Generator: Adobe Illustrator 24.0.1, SVG Export Plug-In . SVG Version: 6.00 Build 0)  -->
<svg version="1.1" id="Layer_1" xmlns="http://www.w3.org/2000/svg" xmlns:xlink="http://www.w3.org/1999/xlink" x="0px" y="0px"
	 viewBox="0 0 3840 1920" style="enable-background:new 0 0 3840 1920;" xml:space="preserve">
<style type="text/css">
	.st0{fill:#323232;}
	.st1{font-family:'Muli-Bold';}
	.st2{font-size:496.3184px;}
	.st3{fill:none;stroke:#323232;stroke-width:52;stroke-miterlimit:10;}
	.st4{fill:none;stroke:#323232;stroke-width:51;stroke-miterlimit:10;}
	.st5{fill:none;stroke:#323232;stroke-width:47;stroke-miterlimit:10;}
	.st6{fill:none;stroke:#323232;stroke-width:52;stroke-linecap:round;stroke-miterlimit:10;}
</style>
<text transform="matrix(1 0 0 1 1214.5023 1194.6713)" class="st0 st1 st2">dezprof21.</text>
<ellipse transform="matrix(0.4679 -0.8838 0.8838 0.4679 -940.0224 1056.9484)" class="st3" cx="407.7" cy="1309.1" rx="155.6" ry="222.8"/>
<path class="st3" d="M717.3,523.4c-17.1,32.2,6.5,78.1,52.7,102.6c46.1,24.4,97.4,18.1,114.4-14.1"/>
<path class="st3" d="M912,530.8c29.4,37.8,38.9,81.6,20.7,116c-28.5,53.8-114.1,64.4-191.2,23.6c-77.1-40.8-116.5-117.6-88-171.4
	c18.2-34.4,59.8-51.1,107.5-48.1"/>
<path class="st3" d="M934.1,516.9c55.4,57.4,76.6,129.4,47.4,184.5c-40.2,75.9-160.9,90.8-269.7,33.2
	c-108.7-57.6-164.3-165.8-124.1-241.7c29.2-55.1,100.7-78,179.3-64.5"/>
<path class="st3" d="M926.1,484.8c-2.9,5.4-6.9,9.8-12,13.3c-0.6,0.4-1.2,0.8-1.8,1.2c-18.2,11.2-47.2,10.5-73.9-3.7
	c-26.7-14.2-43.6-37.8-44.6-59.1c-0.1-0.7-0.1-1.5-0.1-2.2c0-6.1,1.4-12,4.3-17.4"/>
<path class="st3" d="M946,447.4c6.8,16.6,7.2,33.5-0.3,47.8c-3.7,7.1-9.1,12.9-15.8,17.4c-1,0.7-2.1,1.4-3.2,2
	c-23.8,14-61.1,12.9-95.5-5.4c-34.4-18.2-56.3-48.4-58.1-75.9c-0.1-1.3-0.1-2.5-0.1-3.8c0-8,1.8-15.8,5.6-22.8
	c7.6-14.3,21.8-23.4,39.3-27.1"/>
<ellipse transform="matrix(0.4679 -0.8838 0.8838 0.4679 213.7957 993.3865)" class="st3" cx="931.9" cy="319.1" rx="50.6" ry="72.5"/>
<polyline class="st4" points="945.7,495.2 934.1,517 931.9,521.2 883.5,612.5 "/>
<polyline class="st3" points="776.4,410.7 767,428.4 764.8,432.6 716.8,523.4 "/>
<polyline class="st3" points="798.1,417 817.9,379.5 848,322.7 867.8,285.2 "/>
<polyline class="st5" points="926.1,484.8 946,447.4 976.1,390.5 995.9,353 "/>
<line class="st3" x1="604.7" y1="1413.4" x2="981.6" y2="701.4"/>
<line class="st3" x1="210.8" y1="1204.9" x2="587.8" y2="492.9"/>
<line class="st6" x1="766.4" y1="858.6" x2="609.9" y2="1154.3"/>
<line class="st6" x1="876.7" y1="405.6" x2="862.1" y2="433.2"/>
</svg>
